<svg width="226" height="227" viewBox="0 0 226 227" fill="none" xmlns="http://www.w3.org/2000/svg">
<path d="M101.764 1.9816C100.468 5.12248 104.499 7.83506 107.233 5.69355C108.385 4.69418 109.392 2.98097 109.392 1.9816C109.392 -0.730982 102.771 -0.588215 101.764 1.9816Z" fill="black"/>
<path d="M163.945 6.55018C162.937 7.83518 161.354 10.2624 160.49 11.9758C159.627 13.6891 157.324 15.1169 155.021 15.4024C150.559 15.9736 149.551 20.6852 153.437 23.398C155.453 24.9686 155.453 26.1108 153.869 34.1064C151.566 44.8148 153.437 49.6692 160.49 51.6681C170.998 54.5237 178.195 47.3848 168.263 43.9581C163.945 42.5303 163.801 42.102 164.665 36.6764C165.96 28.538 167.975 25.6825 172.149 25.6825C177.187 25.6825 178.339 21.5419 174.308 18.258C172.005 16.5447 171.142 14.6885 171.717 12.5469C173.445 6.12184 167.975 1.83849 163.945 6.55018Z" fill="black"/>
<path d="M102.052 13.8318C99.8926 19.1146 102.627 39.6747 105.938 42.8158C107.953 44.8147 108.385 44.672 110.976 41.3881C113.567 38.3897 113.855 36.6764 112.991 27.8241C111.839 15.2596 109.824 9.97681 106.37 9.97681C104.643 9.97681 102.915 11.5474 102.052 13.8318Z" fill="black"/>
<path d="M121.771 12.2613C120.044 13.8319 119.468 17.4013 119.468 25.6825C119.468 37.2475 121.195 43.5298 124.65 44.8148C127.385 45.8142 130.983 38.5325 130.983 31.8219C131.127 24.3975 133.718 21.2563 139.619 21.6847C145.953 22.2558 148.544 18.5435 144.801 14.403C141.778 11.1191 136.741 10.548 132.279 12.8324C130.12 14.1174 129.256 13.8319 128.68 12.1185C127.529 9.40573 124.65 9.40573 121.771 12.2613Z" fill="black"/>
<path d="M76.8625 14.8313C75.8549 17.2585 76.1428 18.4007 79.7412 28.1097C82.0442 34.3919 81.6124 38.5325 78.5897 38.5325C76.2867 38.5325 73.9837 33.5352 72.5443 26.1108C71.2489 18.9718 69.5217 15.6879 66.7868 15.6879C61.893 15.6879 60.8854 30.9652 65.0596 39.2464C70.2413 49.2409 79.5973 51.5253 87.6578 44.8147C93.5592 39.9603 93.7031 32.2502 88.2335 21.2563C84.0593 13.2607 78.5897 10.1196 76.8625 14.8313Z" fill="black"/>
<path d="M190.861 20.1141C185.679 26.2536 183.664 30.3942 179.922 42.5303C176.899 52.2392 176.899 53.0959 179.058 56.3798C180.354 58.3787 182.369 59.9493 183.376 59.9493C185.247 59.9493 191.437 49.3837 191.437 46.2426C191.437 45.5287 193.74 39.2464 196.618 32.393C200.649 22.3986 201.368 19.4002 200.073 17.6869C197.338 14.5457 194.891 15.2596 190.861 20.1141Z" fill="black"/>
<path d="M40.3026 23.5408C39.295 24.683 37.4238 25.6825 35.9844 25.6825C32.2421 25.6825 25.9088 33.8209 25.9088 38.5326C25.9088 46.3854 27.78 51.6682 32.386 56.5226C37.9996 62.3765 43.7571 62.9477 48.9388 58.236C51.2418 56.0943 52.5372 55.666 52.9691 56.8082C54.1206 60.5204 64.3401 70.3721 65.9234 69.3727C68.6582 67.8021 67.9385 64.2327 63.3326 55.666C60.8856 51.3826 56.7114 42.9587 53.6887 37.1048C48.507 26.3964 45.0525 21.3991 43.1813 21.3991C42.6056 21.3991 41.3101 22.3986 40.3026 23.5408ZM42.6056 39.2464C45.4843 43.6726 44.3328 50.3832 40.5904 49.6693C37.4238 49.0982 34.1132 42.102 35.2647 38.5326C36.5602 34.6775 39.7268 34.9631 42.6056 39.2464Z" fill="black"/>
<path d="M202.952 40.103C194.46 48.6697 192.444 58.9498 198.058 66.8026C201.081 71.0859 214.179 71.3715 218.065 67.0881C221.952 62.9476 219.936 59.9492 213.027 59.9492C209.861 59.9492 207.27 59.3781 207.27 58.5214C207.27 57.8075 208.278 57.522 209.429 57.9503C212.02 58.9498 219.793 56.237 223.535 53.0959C226.845 50.2403 226.845 41.1025 223.391 38.1041C221.664 36.5336 218.209 35.6769 214.035 35.6769C208.565 35.6769 206.694 36.3908 202.952 40.103ZM215.187 46.9564C214.755 47.8131 213.603 48.0986 212.74 47.6703C211.876 47.0992 212.02 46.3853 213.171 45.5286C215.474 44.1008 216.482 44.9575 215.187 46.9564Z" fill="black"/>
<path d="M4.89387 41.1026C2.44694 42.6731 0 47.9559 0 51.6682C0 56.8082 3.59844 60.6632 9.93168 62.6621C16.121 64.3754 17.1286 66.5171 14.1059 71.2288C12.0907 74.6555 13.5301 78.5105 16.9846 78.5105C22.1664 78.5105 25.9087 72.5138 25.9087 64.5182C25.9087 57.8076 25.4769 56.951 21.5906 54.9521C19.2876 53.8098 16.121 52.8104 14.5377 52.8104C11.2271 52.8104 9.93168 50.2404 11.8029 46.6709C14.3937 41.6737 9.78775 37.8187 4.89387 41.1026Z" fill="black"/>
<path d="M170.998 87.078C166.536 90.0763 163.657 93.2174 162.362 96.5013C160.922 100.499 159.915 101.356 157.612 100.785C156.028 100.499 152.142 99.4997 148.975 98.643C129.976 93.6458 107.09 102.355 91.8323 120.203C85.3551 127.627 77.7264 142.904 77.7264 148.33C77.7264 152.899 75.9992 156.183 74.8477 154.041C72.5447 150.472 61.3176 162.465 58.7267 171.174C57.4312 175.458 59.7342 179.884 63.0448 179.884C70.8174 179.741 75.2795 173.031 75.1355 161.323C75.1355 157.325 75.4234 156.897 76.287 159.181C77.0067 160.752 77.5825 164.036 77.5825 166.32C77.7264 171.888 82.4764 180.598 88.8096 187.308C93.4156 192.02 103.491 197.16 111.552 198.873C114.143 199.445 114.143 199.587 111.264 199.73C109.537 199.73 107.665 200.444 107.234 201.301C106.802 202.015 105.075 202.728 103.635 202.728C98.0216 202.728 93.7035 214.579 98.5974 216.435C103.203 218.291 110.832 215.293 117.453 209.296C124.218 203.3 125.226 198.873 119.324 200.301C117.741 200.73 116.59 200.587 116.59 199.873C116.59 199.302 120.332 198.445 124.938 198.16C135.877 197.446 150.991 189.878 160.49 180.598C176.468 165.035 183.664 142.476 177.763 126.342C174.596 117.633 175.028 115.919 181.217 112.778C192.732 107.067 196.475 95.2163 189.134 87.9346C186.975 85.9357 184.528 84.2224 183.377 84.2224C182.369 84.2224 180.642 83.9368 179.634 83.5085C178.483 83.0802 174.596 84.6507 170.998 87.078ZM143.938 104.069C143.938 105.496 143.218 108.78 142.354 111.208C140.771 115.776 140.915 116.062 149.119 124.486C157.18 132.624 157.9 132.91 163.369 132.196C166.536 131.91 170.566 131.054 172.437 130.483C175.316 129.626 175.604 130.054 175.604 135.194C175.604 140.62 175.46 140.905 168.839 142.904L161.93 144.903L158.907 156.183C155.741 167.177 155.741 171.317 158.619 171.317C160.778 171.317 159.339 177.314 156.604 179.027C154.733 180.169 153.438 179.884 151.135 177.742C148.544 175.458 147.536 175.315 143.506 176.743C140.915 177.599 136.309 178.742 133.142 179.313C125.802 180.598 124.362 181.74 123.211 187.737C122.635 190.45 121.052 193.305 119.756 194.019C116.302 195.875 109.105 194.305 109.968 191.877C110.4 190.878 111.408 187.308 112.271 184.024L113.999 177.885L105.075 169.461C97.5898 162.322 95.7186 161.18 92.552 162.037C80.4612 165.035 80.3173 165.035 80.893 159.752C81.3249 155.326 81.9006 154.755 87.3702 153.613C93.9914 152.328 94.2792 151.899 98.4534 135.908C100.181 129.055 100.181 128.055 97.7337 125.057C95.1429 121.916 95.1429 121.63 98.0216 118.632C100.9 115.634 101.188 115.634 104.643 117.775C108.529 120.345 112.127 120.06 124.938 116.348C131.703 114.349 132.135 113.778 133.718 107.781C135.157 101.927 135.733 101.356 139.62 101.356C142.93 101.356 143.938 102.07 143.938 104.069Z" fill="black"/>
<path d="M121.339 126.912C116.445 128.197 111.696 129.911 110.832 130.767C109.968 131.624 107.953 137.05 106.37 143.046L103.491 153.755L111.839 161.893C120.044 169.889 120.332 170.031 126.665 169.175C130.263 168.746 135.733 167.461 138.9 166.462C144.513 164.463 144.801 164.035 148.112 152.898L151.71 141.19L143.218 132.766C138.468 128.055 133.718 124.342 132.423 124.342C131.271 124.485 126.233 125.627 121.339 126.912Z" fill="black"/>
<path d="M87.0821 92.6455C78.1579 94.9299 62.1809 104.496 54.6961 112.063C46.6356 120.059 46.0599 123.2 52.8249 119.916C57.7188 117.774 71.5368 114.348 75.9989 114.205C77.8701 114.205 81.7564 115.204 84.4912 116.632C89.3851 118.917 89.529 118.917 92.5517 115.347C97.4456 109.779 106.514 103.354 115.006 99.4989L122.635 96.0722L117.885 94.3588C111.695 92.2172 92.6956 91.0749 87.0821 92.6455Z" fill="black"/>
<path d="M179.49 155.04C178.914 155.611 178.482 157.181 178.482 158.466C178.482 161.465 171.717 171.745 164.089 180.311C158.907 186.023 158.475 187.165 159.77 190.592C162.073 196.731 161.498 209.153 158.331 217.006C155.164 225.001 154.877 227 156.748 227C158.475 227 170.566 214.436 175.172 207.725C180.641 199.872 185.679 183.738 185.535 175.171C185.391 167.176 181.217 153.326 179.49 155.04Z" fill="black"/>
</svg>
