<!-- Generated by IcoMoon.io -->
<svg version="1.1" xmlns="http://www.w3.org/2000/svg" width="1024" height="1024" viewBox="0 0 1024 1024">
<title></title>
<g id="icomoon-ignore">
</g>
<path d="M512 384c-70.692 0-128 57.308-128 128s57.308 128 128 128v0c70.692 0 128-57.308 128-128s-57.308-128-128-128v0zM512 298.667c117.821 0 213.333 95.513 213.333 213.333s-95.513 213.333-213.333 213.333v0c-117.821 0-213.333-95.513-213.333-213.333s95.513-213.333 213.333-213.333v0zM789.333 288c0 29.455-23.878 53.333-53.333 53.333s-53.333-23.878-53.333-53.333v0c0-29.455 23.878-53.333 53.333-53.333s53.333 23.878 53.333 53.333v0zM512 170.667c-105.557 0-122.795 0.299-171.904 2.475-33.451 1.579-55.893 6.059-76.715 14.165-18.517 7.168-31.872 15.744-46.080 29.995-13.028 12.599-23.267 27.996-29.757 45.23l-0.281 0.85c-8.107 20.907-12.587 43.307-14.123 76.715-2.219 47.104-2.475 63.573-2.475 171.904 0 105.557 0.299 122.795 2.475 171.904 1.579 33.408 6.059 55.893 14.123 76.672 7.253 18.56 15.787 31.915 29.952 46.080 14.379 14.336 27.733 22.912 46.080 29.995 21.077 8.149 43.52 12.672 76.8 14.208 47.104 2.219 63.573 2.475 171.904 2.475 105.557 0 122.795-0.299 171.904-2.475 33.365-1.579 55.851-6.059 76.672-14.123 18.475-7.211 31.915-15.787 46.080-29.952 14.379-14.379 22.955-27.733 30.037-46.080 8.107-21.035 12.629-43.52 14.165-76.8 2.219-47.104 2.475-63.573 2.475-171.904 0-105.557-0.299-122.795-2.475-171.904-1.579-33.365-6.059-55.893-14.165-76.715-6.788-18.070-17.008-33.462-29.965-46.051l-0.030-0.029c-12.595-13.035-27.993-23.275-45.232-29.758l-0.848-0.28c-20.907-8.107-43.349-12.587-76.715-14.123-47.104-2.219-63.573-2.475-171.904-2.475zM512 85.333c115.925 0 130.389 0.427 175.872 2.56 45.44 2.133 76.373 9.259 103.595 19.84 28.16 10.837 51.883 25.515 75.605 49.195 21.149 20.801 37.882 46.022 48.71 74.172l0.485 1.433c10.539 27.179 17.707 58.155 19.84 103.595 2.005 45.483 2.56 59.947 2.56 175.872s-0.427 130.389-2.56 175.872c-2.133 45.44-9.301 76.373-19.84 103.595-11.279 29.595-28.017 54.822-49.162 75.574l-0.032 0.032c-20.806 21.141-46.025 37.873-74.171 48.709l-1.434 0.486c-27.179 10.539-58.155 17.707-103.595 19.84-45.483 2.005-59.947 2.56-175.872 2.56s-130.389-0.427-175.872-2.56c-45.44-2.133-76.373-9.301-103.595-19.84-29.592-11.289-54.817-28.025-75.575-49.164l-0.030-0.031c-21.154-20.799-37.887-46.020-48.711-74.173l-0.484-1.432c-10.581-27.179-17.707-58.155-19.84-103.595-2.005-45.483-2.56-59.947-2.56-175.872s0.427-130.389 2.56-175.872c2.133-45.483 9.259-76.373 19.84-103.595 11.275-29.597 28.014-54.824 49.162-75.574l0.033-0.032c20.794-21.161 46.017-37.897 74.175-48.712l1.43-0.483c27.221-10.581 58.112-17.707 103.595-19.84 45.483-2.005 59.947-2.56 175.872-2.56z"></path>
</svg>
