<?xml version="1.0" standalone="no"?>
<!DOCTYPE svg PUBLIC "-//W3C//DTD SVG 20010904//EN"
 "http://www.w3.org/TR/2001/REC-SVG-20010904/DTD/svg10.dtd">
<svg version="1.0" xmlns="http://www.w3.org/2000/svg"
 width="500.000000pt" height="500.000000pt" viewBox="0 0 500.000000 500.000000"
 preserveAspectRatio="xMidYMid meet">

<g transform="translate(0.000000,500.000000) scale(0.100000,-0.100000)"
fill="#000000" stroke="none">
<path d="M2897 3296 c-9 -22 19 -41 38 -26 8 7 15 19 15 26 0 19 -46 18 -53 0z"/>
<path d="M3329 3264 c-7 -9 -18 -26 -24 -38 -6 -12 -22 -22 -38 -24 -31 -4
-38 -37 -11 -56 14 -11 14 -19 3 -75 -16 -75 -3 -109 46 -123 73 -20 123 30
54 54 -30 10 -31 13 -25 51 9 57 23 77 52 77 35 0 43 29 15 52 -16 12 -22 25
-18 40 12 45 -26 75 -54 42z"/>
<path d="M2899 3213 c-15 -37 4 -181 27 -203 14 -14 17 -13 35 10 18 21 20 33
14 95 -8 88 -22 125 -46 125 -12 0 -24 -11 -30 -27z"/>
<path d="M3036 3224 c-12 -11 -16 -36 -16 -94 0 -81 12 -125 36 -134 19 -7 44
44 44 91 1 52 19 74 60 71 44 -4 62 22 36 51 -21 23 -56 27 -87 11 -15 -9 -21
-7 -25 5 -8 19 -28 19 -48 -1z"/>
<path d="M2724 3206 c-7 -17 -5 -25 20 -93 16 -44 13 -73 -8 -73 -16 0 -32 35
-42 87 -9 50 -21 73 -40 73 -34 0 -41 -107 -12 -165 36 -70 101 -86 157 -39
41 34 42 88 4 165 -29 56 -67 78 -79 45z"/>
<path d="M3516 3169 c-36 -43 -50 -72 -76 -157 -21 -68 -21 -74 -6 -97 9 -14
23 -25 30 -25 13 0 56 74 56 96 0 5 16 49 36 97 28 70 33 91 24 103 -19 22
-36 17 -64 -17z"/>
<path d="M2470 3145 c-7 -8 -20 -15 -30 -15 -26 0 -70 -57 -70 -90 0 -55 13
-92 45 -126 39 -41 79 -45 115 -12 16 15 25 18 28 10 8 -26 79 -95 90 -88 19
11 14 36 -18 96 -17 30 -46 89 -67 130 -36 75 -60 110 -73 110 -4 0 -13 -7
-20 -15z m16 -110 c20 -31 12 -78 -14 -73 -22 4 -45 53 -37 78 9 27 31 25 51
-5z"/>
<path d="M3600 3029 c-59 -60 -73 -132 -34 -187 21 -30 112 -32 139 -2 27 29
13 50 -35 50 -22 0 -40 4 -40 10 0 5 7 7 15 4 18 -7 72 12 98 34 23 20 23 84
-1 105 -12 11 -36 17 -65 17 -38 0 -51 -5 -77 -31z m85 -48 c-3 -6 -11 -8 -17
-5 -6 4 -5 9 3 15 16 10 23 4 14 -10z"/>
<path d="M2224 3022 c-17 -11 -34 -48 -34 -74 0 -36 25 -63 69 -77 43 -12 50
-27 29 -60 -14 -24 -4 -51 20 -51 36 0 62 42 62 98 0 47 -3 53 -30 67 -16 8
-38 15 -49 15 -23 0 -32 18 -19 43 18 35 -14 62 -48 39z"/>
<path d="M3378 2700 c-31 -21 -51 -43 -60 -66 -10 -28 -17 -34 -33 -30 -11 2
-38 9 -60 15 -132 35 -291 -26 -397 -151 -45 -52 -98 -159 -98 -197 0 -32 -12
-55 -20 -40 -16 25 -94 -59 -112 -120 -9 -30 7 -61 30 -61 54 1 85 48 84 130
0 28 2 31 8 15 5 -11 9 -34 9 -50 1 -39 34 -100 78 -147 32 -33 102 -69 158
-81 18 -4 18 -5 -2 -6 -12 0 -25 -5 -28 -11 -3 -5 -15 -10 -25 -10 -39 0 -69
-83 -35 -96 32 -13 85 8 131 50 47 42 54 73 13 63 -11 -3 -19 -2 -19 3 0 4 26
10 58 12 76 5 181 58 247 123 111 109 161 267 120 380 -22 61 -19 73 24 95 80
40 106 123 55 174 -15 14 -32 26 -40 26 -7 0 -19 2 -26 5 -8 3 -35 -8 -60 -25z
m-188 -119 c0 -10 -5 -33 -11 -50 -11 -32 -10 -34 47 -93 56 -57 61 -59 99
-54 22 2 50 8 63 12 20 6 22 3 22 -33 0 -38 -1 -40 -47 -54 l-48 -14 -21 -79
c-22 -77 -22 -106 -2 -106 15 0 5 -42 -14 -54 -13 -8 -22 -6 -38 9 -18 16 -25
17 -53 7 -18 -6 -50 -14 -72 -18 -51 -9 -61 -17 -69 -59 -4 -19 -15 -39 -24
-44 -24 -13 -74 -2 -68 15 3 7 10 32 16 55 l12 43 -62 59 c-52 50 -65 58 -87
52 -84 -21 -85 -21 -81 16 3 31 7 35 45 43 46 9 48 12 77 124 12 48 12 55 -5
76 -18 22 -18 24 2 45 20 21 22 21 46 6 27 -18 52 -16 141 10 47 14 50 18 61
60 10 41 14 45 41 45 23 0 30 -5 30 -19z"/>
<path d="M3033 2421 c-34 -9 -67 -21 -73 -27 -6 -6 -20 -44 -31 -86 l-20 -75
58 -57 c57 -56 59 -57 103 -51 25 3 63 12 85 19 39 14 41 17 64 95 l25 82 -59
59 c-33 33 -66 59 -75 59 -8 -1 -43 -9 -77 -18z"/>
<path d="M2795 2661 c-62 -16 -173 -83 -225 -136 -56 -56 -60 -78 -13 -55 34
15 130 39 161 40 13 0 40 -7 59 -17 34 -16 35 -16 56 9 34 39 97 84 156 111
l53 24 -33 12 c-43 15 -175 23 -214 12z"/>
<path d="M3437 2224 c-4 -4 -7 -15 -7 -24 0 -21 -47 -93 -100 -153 -36 -40
-39 -48 -30 -72 16 -43 12 -130 -10 -185 -22 -56 -24 -70 -11 -70 12 0 96 88
128 135 38 55 73 168 72 228 -1 56 -30 153 -42 141z"/>
</g>
</svg>
